<svg width="498" height="106" viewBox="0 0 498 106" fill="none" xmlns="http://www.w3.org/2000/svg">
<path d="M23.1195 10C23.1195 22.0415 23.1195 34.083 23.1195 46.1245C23.1195 52.2183 22.5003 58.9668 24.0806 64.4977C25.8977 70.8576 31.0324 74.4441 34.0869 80.2138C36.73 85.2063 40.0506 89.6539 42.4538 94.4601" stroke="black" stroke-width="2" stroke-linecap="round"/>
<path d="M444.255 1.40805C443.262 20.3016 442.268 39.1952 441.275 58.0888C440.841 66.3348 439.866 69.7634 448.977 70.9481C453.955 71.5953 458.785 77.7813 461.962 81.3112C463.338 82.8393 465.341 89.9257 464.263 86.0176" stroke="black" stroke-width="2" stroke-linecap="round"/>
<path d="M1 23.0913C24.048 23.0913 46.6539 19.021 69.7439 19.021C80.6005 19.021 91.3981 18.0034 102.307 18.0034C120.158 18.0034 138.685 19.5333 156.465 17.7772C193.026 14.1664 229.582 8.84505 266.422 8.84505C292.483 8.84505 318.545 8.84505 344.607 8.84505C357.446 8.84505 370.165 9.86264 383.049 9.86264C392.625 9.86264 400.494 10.6387 409.054 6.58374C414.228 4.13294 425.912 5.059 431.441 5.84881C435.018 6.35973 456.881 11.3798 456.881 6.80987" stroke="black" stroke-width="2" stroke-linecap="round"/>
<path d="M6.09473 90.1502C45.4775 90.1502 84.7492 89.1326 124.135 89.1326C133.704 89.1326 143.187 88.7934 152.684 87.6062C161.215 86.54 169.477 84.0311 178.011 83.0271C196.269 80.879 213.406 73.8687 232.057 73.8687C256.099 73.8687 280.218 73.0692 304.136 75.9039C311.516 76.7786 319.597 75.8267 326.862 77.1476C332.307 78.1375 338.642 78.8283 344.161 78.9567C350.486 79.1038 357.745 80.0723 363.269 77.1476C363.63 76.9569 364.287 76.4693 364.287 76.4693C364.287 76.4693 364.287 75.7532 364.287 75.3951C364.287 73.5671 364.287 74.925 364.287 75.9039" stroke="black" stroke-width="2" stroke-linecap="round"/>
<path d="M364.287 75.9039C388.695 75.9039 413.031 76.9215 437.497 76.9215C447.692 76.9215 457.886 76.9215 468.081 76.9215C477.57 76.9215 487.269 74.8863 496.574 74.8863" stroke="black" stroke-width="2" stroke-linecap="round"/>
<path d="M39 98.0704C39 99.3387 39.5383 107.472 40.0176 103.158C40.3728 99.9615 43.3725 95.6775 40.0176 94" stroke="black" stroke-width="2" stroke-linecap="round"/>
</svg>
